<svg version="1.1" xmlns="http://www.w3.org/2000/svg" xmlns:xlink="http://www.w3.org/1999/xlink" x="0px" y="0px"
	 width="820.767px" height="326.403px" viewBox="0 0 820.767 326.403" enable-background="new 0 0 820.767 326.403"
	 xml:space="preserve">
<g>
	<defs>
		<rect id="SVGID_1_" width="820.767" height="326.403"/>
	</defs>
	<clipPath id="SVGID_2_">
		<use xlink:href="#SVGID_1_"  overflow="visible"/>
	</clipPath>
	<path clip-path="url(#SVGID_2_)" d="M195.537,141.401c-0.256,1.199-0.389,2.44-0.79,3.587c-3.356,9.614-7.511,19.027-9.94,28.865
		c-2.443,9.9-1.12,19.625,5.528,28.314c4.517,5.901,8.543,12.305,11.912,18.927c9.014,17.714,14.576,36.169,10.132,56.424
		c0.574-0.999,1.211-1.968,1.715-3.001c4.57-9.373,4.755-19.174,2.668-29.137c-2.929-13.981-10.496-25.794-18.068-37.553
		c-6.12-9.505-11.704-19.32-9.761-31.023c1.351-8.136,3.701-16.232,6.636-23.957c4.43-11.652,10.402-22.739,14.541-34.478
		c4.889-13.867,0.75-25.179-12.12-32.213c-0.683-0.372-1.494-0.508-2.245-0.756c1.15,2.833,2.567,5.209,4.481,7.079
		c6.325,6.183,7.711,13.753,6.265,21.972c-1.869,10.628-9.573,17.073-17.603,23.128c-8.357,6.304-16.932,12.33-25.134,18.827
		c-2.495,1.974-4.07,5.103-6.066,7.706c0.268,0.211,0.537,0.424,0.806,0.635c8.574-11.206,20.997-16.941,33.11-23.083
		C192.681,141.116,194.215,141.467,195.537,141.401 M167.572,58.432c-6.394,11.039-5.412,22.927-3.67,34.829
		c1.681,11.497,3.533,22.97,5.346,34.686c0.702-3.195,1.633-6.403,2.084-9.674c1.288-9.35-1.039-18.376-2.653-27.479
		c-1.173-6.625-2.675-13.295-0.712-21.206c1.768,1.565,2.883,2.861,4.276,3.695c1.307,0.779,2.907,1.069,4.378,1.577
		c0.125-0.366,0.251-0.731,0.378-1.098c-0.379-0.325-0.745-0.666-1.136-0.977c-6.957-5.508-7.374-9.55-1.706-16.363
		c2.422-2.915,4.855-5.821,7.21-8.788c4.063-5.117,4.816-7.835,3.806-11.982c-3.969,4.922-8.235,10.124-12.393,15.409
		C170.921,53.424,169.073,55.839,167.572,58.432 M169.035,229.471c0.204,3.396,0.008,6.827-0.174,10.232
		c-0.176,3.273-0.387,6.564-0.921,9.794c-0.519,3.146-1.465,6.226-2.293,9.62c-0.578-1.252-0.946-2.049-1.313-2.844
		c-0.176,0.061-0.351,0.121-0.526,0.18v25.548c0.104,0,0.209,0,0.314,0.002c0.727-4.652,1.452-9.303,2.178-13.954
		c0.306,0.033,0.611,0.065,0.917,0.096c0.092,1.499,0.185,2.997,0.295,4.774c8.166-32.116,7.764-66.53-0.791-77.487
		C167.504,206.743,168.358,218.101,169.035,229.471 M182.08,0c-4.104,22.476-8.06,44.521-29.134,58.201
		C175.117,55.611,189.065,12.645,182.08,0 M81.527,60.509c7.172-3.71,14.421-7.275,21.495-11.164
		c4.071-2.237,6.638-5.914,8.06-9.344c-6.424,3.701-13.185,7.733-20.079,11.524c-5.154,2.834-10.662,5.053-15.69,8.079
		c-8.232,4.952-12.566,12.524-13.216,22.119C64.645,70.926,72.497,65.181,81.527,60.509 M142.813,143.458
		c-2.815-6.851-1.567-13.634,0.198-20.347c1.22-4.645,2.987-9.148,4.176-13.8c1.681-6.571,2.677-13.206-0.725-20.025
		c-0.638,3.591-1.009,6.811-1.801,9.924c-1.93,7.588-4.339,15.065-6.021,22.703C136.97,129.5,137.383,136.974,142.813,143.458
		 M54.595,149.66c3.222-10.914,5.394-22.179,7.291-33.424c0.854-5.066,0.145-10.397,0.145-15.605
		c-0.901,0.271-1.205,0.568-1.24,0.891c-0.736,6.955-1.052,13.982-2.244,20.857c-1.739,10.02-4.179,19.919-6.126,29.905
		c-0.308,1.577,0.396,3.351,0.698,5.517C55.608,154.929,53.762,152.483,54.595,149.66 M241.479,294.343
		c-10.788-0.162-21.58-0.043-33.09-0.043c0.947,0.842,1.191,1.163,1.516,1.326c0.702,0.351,1.426,0.678,2.174,0.91
		c6.628,2.062,13.186,0.601,19.836-0.103c7.242-0.767,15.03-2.756,20.211,5.3c1.525,2.37,4.044,1.858,6.692-0.021
		C254.247,295.618,248.008,294.441,241.479,294.343 M139.52,164.876c-9.884,2.164-14.526,6.192-15.148,13.153
		c4.491-9.703,14.213-9.92,30.807-8.302C152.73,165.398,146.274,163.399,139.52,164.876 M139.088,55.282
		c-4.249-7.239-8.442-14.381-12.634-21.523c-0.432,0.281-0.864,0.56-1.297,0.839C127.014,46.277,132.947,55.208,139.088,55.282
		 M180.923,285.756c3.085,0.512,7.054,1.121,11.003,1.844c3.988,0.729,7.798,3.303,12.14,1.158
		C198.3,283.299,185.906,282.186,180.923,285.756 M203.99,316.476c1.531-0.205,3.055-0.479,4.592-0.602
		c7.348-0.59,14.789-2.693,21.733,2.021c1.505,1.021,3.748,0.964,5.65,1.401c0.067-0.426,0.131-0.854,0.198-1.28
		C225.758,312.666,214.946,312.915,203.99,316.476 M161.178,149.937c5.33-2.826,7.354-10.75,2.624-14.984
		C162.858,140.338,162,145.247,161.178,149.937 M79.261,303.288c-10.872-2.954-17.989-8.274-25.896-9.456
		c-2.636-0.394-4.92-0.524-6.794-0.524c-3.749,0-5.858,0.524-5.858,0.524c12.059,3.152,26.293,11.033,29.653,12.806
		c2.27,1.197,7.967,1.768,11.791,1.768c1.838,0,3.243-0.132,3.628-0.389c1.186-0.788,3.361-1.182,6.128-1.182
		c2.768,0,10.478-0.992,12.652-5.717c-3.207,0.874-9.533,3.247-16.994,3.247C84.915,304.365,82.116,304.063,79.261,303.288
		 M88.108,259.91c-2.793,0-5.782,0.479-8.847,1.611c-12.255,4.531-25.303,11.428-25.303,11.428c2.332,0.072,4.401,0.127,6.286,0.127
		c8.186,0,12.924-0.999,20.797-5.645c3.824-2.256,7.681-3.099,11.19-3.099c5.378,0,9.941,1.979,12.334,3.888
		C103.082,264.231,96.484,259.91,88.108,259.91 M72.639,230.788c0.034,0.003,0.067,0.004,0.099,0.004
		c1.275,0,1.059-1.879-0.099-1.976c-2.925-0.117-7.395-0.441-12.707-0.441c-21.255,0-56.047,5.168-59.843,49.303
		c-0.179,2.083-0.07,2.8,0.16,2.8c0.456,0,1.389-2.803,1.52-3.392c3.179-12.097,23.451-46.37,67.388-46.37
		C70.304,230.715,71.459,230.739,72.639,230.788 M67.68,204.179c-0.14,0-0.235,0.035-0.279,0.11
		c-1.285,2.167,3.855,7.289,8.401,9.948c3.998,2.338,8.529,7.189,10.439,7.189c0.263,0,0.476-0.092,0.632-0.294
		c1.284-1.676-4.547-7.291-6.524-9.358C78.516,209.856,69.467,204.179,67.68,204.179 M120.112,127.179
		c-0.31,0-0.648,0.261-0.918,0.918c-0.791,1.926-6.425,7.532-14.332,8.122c-0.279,0.02-0.555,0.03-0.829,0.03
		c-7.477,0-12.84-7.534-13.602-8.009c-0.153-0.096-0.333-0.143-0.522-0.143c-0.788,0-1.752,0.819-1.752,2.408
		c0,1.971,0.89,13.497,1.582,16.155c0.692,2.66,1.087,2.956,3.36,6.306c-0.197,2.56,4.547,14.578,7.611,24.625
		c3.065,10.049-0.494,21.181-1.384,21.871c-0.232,0.18-0.438,0.252-0.623,0.252c-0.523,0-0.88-0.578-1.221-0.942
		c-0.46-0.493-3.197-0.493-3.197-0.493s2.768,2.955,3.163,7.881c0.396,4.926-2.767,10.837-4.448,18.322
		c-1.679,7.486,0.396,12.019,1.187,13.496c0.451,0.845,1.064,1.624,1.58,1.624c0.388,0,0.721-0.44,0.89-1.624
		c0,0,5.536-20.687,7.019-26.99c1.482-6.306,2.668-30.638,0.395-40.882c-2.274-10.246-8.006-18.027-10.477-18.814
		c0,0,0.099-4.925,0.099-6.108c0-1.181-0.693-5.417-0.594-6.599c0.076-0.904,0.959-1.289,1.856-1.289
		c0.278,0,0.556,0.036,0.813,0.106c1.088,0.296,4.448,2.07,12.354,2.266c0.084,0.002,0.166,0.004,0.249,0.004
		c7.749,0,12.013-9.082,12.502-10.543C121.2,128.152,120.71,127.179,120.112,127.179 M93.005,196.215
		c1.71,0,2.126-1.198,0.984-1.481c-1.186-0.297-8.677-6.829-12.158-19.523c-2.965-10.818-0.889-29.83-0.79-31.011
		c0.049-0.587-0.388-0.868-0.901-0.868c-0.524,0-1.127,0.294-1.373,0.868c-3.558,8.274-4.793,21.108-2.669,32.309
		c3.065,16.155,14.827,19.604,16.705,19.702C92.873,196.214,92.94,196.215,93.005,196.215 M283.271,138.043
		c-0.545,1-1.424,1.762-2.637,2.282c-0.726,0.324-2.011,0.583-3.849,0.783c-1.839,0.201-3.242,0.339-4.212,0.42v4.267h36.912v-4.267
		c-1.536-0.041-3.222-0.18-5.061-0.42c-1.839-0.242-3.121-0.502-3.849-0.783c-1.455-0.561-2.414-1.371-2.879-2.434
		c-0.465-1.061-0.696-2.291-0.696-3.697v-25.843h9.636c4.122,0,8.021-0.52,11.699-1.563c3.676-1.041,7.05-2.683,10.122-4.928
		c3.111-2.244,5.546-5.079,7.304-8.504c1.757-3.426,2.636-7.362,2.636-11.81c0-6.371-2.495-11.47-7.486-15.295
		c-4.99-3.826-11.485-5.741-19.486-5.741h-39.277v4.267c1.091,0.082,2.395,0.231,3.91,0.451c1.516,0.222,3.04,0.591,4.576,1.112
		c1.495,0.562,2.444,1.402,2.849,2.526c0.404,1.119,0.606,2.383,0.606,3.786v61.542C284.088,135.76,283.815,137.042,283.271,138.043
		 M297,65.438h8.545c3.435,0,6.304,0.523,8.607,1.563c2.304,1.044,4.162,2.506,5.577,4.39c1.333,1.762,2.272,3.825,2.818,6.19
		c0.546,2.364,0.818,4.687,0.818,6.971c0,1.643-0.222,3.496-0.666,5.559c-0.445,2.064-1.355,4.057-2.728,5.98
		c-1.374,2.006-3.425,3.678-6.152,5.018c-2.727,1.345-6.274,2.015-10.637,2.015H297V65.438z M358.883,135.216
		c3.637,3.969,7.991,7.062,13.062,9.286c5.07,2.225,10.596,3.336,16.576,3.336c5.617,0,10.911-1.041,15.882-3.124
		c4.969-2.085,9.333-5.049,13.091-8.896c3.879-3.888,6.91-8.593,9.092-14.124c2.183-5.528,3.273-11.679,3.273-18.451
		c0-6.732-1.071-12.871-3.213-18.421c-2.142-5.548-5.112-10.288-8.91-14.214c-3.676-3.846-8.04-6.831-13.091-8.957
		c-5.052-2.123-10.427-3.185-16.124-3.185c-5.495,0-10.758,1.043-15.788,3.127c-5.031,2.083-9.447,5.088-13.244,9.015
		c-3.839,3.967-6.849,8.666-9.032,14.094c-2.181,5.429-3.272,11.61-3.272,18.541c0,6.331,1.04,12.271,3.121,17.821
		C352.387,126.614,355.246,131.332,358.883,135.216 M363.338,88.339c0.989-4.73,2.494-8.856,4.515-12.381
		c2.141-3.688,4.909-6.632,8.304-8.836c3.394-2.203,7.516-3.306,12.364-3.306c4.324,0,8.163,0.953,11.516,2.855
		c3.355,1.904,6.143,4.559,8.366,7.963c2.222,3.448,3.909,7.614,5.06,12.503c1.152,4.889,1.729,10.254,1.729,16.106
		c0,5.691-0.515,10.838-1.545,15.448c-1.031,4.606-2.678,8.735-4.941,12.379c-2.181,3.606-5.011,6.41-8.486,8.415
		c-3.474,2.002-7.374,3.004-11.698,3.004c-4.605,0-8.567-0.992-11.879-2.974c-3.314-1.984-6.062-4.738-8.243-8.263
		c-2.264-3.608-3.92-7.734-4.97-12.382c-1.052-4.649-1.576-9.859-1.576-15.627C361.854,98.035,362.347,93.067,363.338,88.339
		 M532.083,141.528c-3.192-0.16-6.062-0.68-8.607-1.563c-2.545-0.879-3.819-2.125-3.819-3.726c0-0.681,0.101-1.563,0.304-2.645
		c0.201-1.082,0.566-2.483,1.093-4.206c0.565-1.762,1.204-3.687,1.911-5.771c0.709-2.083,1.63-4.527,2.763-7.333h30.191
		l7.123,19.114c0.161,0.4,0.282,0.861,0.363,1.38c0.081,0.522,0.121,0.963,0.121,1.324c0,0.883-1.041,1.623-3.121,2.223
		c-2.081,0.601-4.697,1.002-7.848,1.203v4.267h35.75v-4.267c-1.012-0.041-2.265-0.249-3.759-0.633
		c-1.494-0.378-2.707-0.848-3.637-1.41c-1.374-0.921-2.445-1.863-3.212-2.825c-0.768-0.962-1.455-2.223-2.06-3.786l-28.67-73.565
		h-4.85c-4.083,10.417-8.728,22.297-13.94,35.639c-5.213,13.344-9.981,25.364-14.305,36.062c-0.848,2.083-1.718,3.716-2.606,4.897
		c-0.89,1.185-2.143,2.316-3.757,3.397c-1.012,0.643-2.305,1.152-3.88,1.531c-1.096,0.267-2.057,0.454-2.897,0.573l1.503-20.975
		h-4.304c-0.849,2.323-2.374,5.358-4.575,9.104c-2.203,3.748-4.133,6.542-5.789,8.386c-0.566,0.641-1.445,1.171-2.636,1.592
		c-1.193,0.419-2.496,0.749-3.91,0.991c-1.454,0.24-2.992,0.402-4.606,0.48c-1.615,0.081-3.174,0.122-4.668,0.122
		c-3.312,0-5.889-0.111-7.727-0.331c-1.839-0.219-3.225-0.692-4.153-1.414c-0.968-0.799-1.586-1.931-1.848-3.395
		c-0.264-1.462-0.395-3.515-0.395-6.162V72.531c0-1.323,0.252-2.564,0.759-3.724c0.505-1.164,1.443-1.986,2.817-2.467
		c0.808-0.279,2.111-0.601,3.91-0.959c1.798-0.362,3.261-0.562,4.395-0.604V60.51H433.2v4.267c1.092,0.082,2.476,0.353,4.153,0.813
		c1.676,0.46,2.978,0.93,3.91,1.41c1.371,0.643,2.292,1.485,2.757,2.527c0.464,1.042,0.696,2.244,0.696,3.604v61.063
		c0,1.566-0.272,2.847-0.817,3.849c-0.546,1-1.425,1.762-2.636,2.282c-0.729,0.324-2.013,0.583-3.85,0.783
		c-1.841,0.201-3.243,0.339-4.214,0.42v4.267h98.883V141.528z M540.676,77.841l13.027,33.095h-25.869L540.676,77.841z
		 M647.777,129.448c-1.535,2.244-3.312,4.246-5.329,6.01c-2.017,1.682-4.399,3.035-7.143,4.057c-2.745,1.02-5.752,1.533-9.021,1.533
		c-4.36,0-8.306-0.963-11.837-2.888c-3.533-1.925-6.589-4.591-9.171-8c-2.584-3.448-4.573-7.448-5.965-12
		c-1.394-4.55-2.089-9.552-2.089-15.006c0-6.176,0.666-11.77,1.998-16.782c1.33-5.013,3.169-9.143,5.51-12.391
		c2.462-3.368,5.378-5.915,8.747-7.64c3.369-1.721,7.013-2.585,10.929-2.585c3.429,0,6.475,0.773,9.14,2.313
		c2.663,1.544,4.964,3.677,6.902,6.4c1.734,2.405,3.248,5.342,4.54,8.808c1.292,3.464,2.261,6.679,2.905,9.645h4.972l-0.546-30.412
		h-4.849l-2.484,4.087c-3.109-1.882-6.378-3.345-9.809-4.387c-3.434-1.041-7.269-1.562-11.506-1.562
		c-5.691,0-11.042,1.08-16.048,3.247c-5.006,2.165-9.345,5.234-13.019,9.201c-3.715,4.01-6.621,8.791-8.719,14.345
		c-2.101,5.553-3.15,11.736-3.15,18.555c0,6.815,1.069,12.941,3.21,18.371c2.139,5.434,5.006,10.036,8.6,13.804
		c3.634,3.769,7.803,6.657,12.507,8.66c4.701,2.004,9.618,3.007,14.745,3.007c7.914,0,14.737-1.812,20.472-5.438
		c5.732-3.627,10.336-9.668,13.807-18.121l-4.545-2.164C650.562,124.757,649.312,127.203,647.777,129.448 M725.207,129.298
		c-2.041,3.906-3.991,6.819-5.849,8.745c-0.688,0.721-1.849,1.291-3.486,1.713c-1.636,0.419-3.221,0.71-4.757,0.87
		c-1.496,0.16-3.334,0.24-5.516,0.24h-5.273c-3.354,0-5.939-0.109-7.757-0.33c-1.819-0.219-3.254-0.708-4.305-1.469
		c-1.053-0.761-1.758-1.88-2.122-3.361c-0.362-1.48-0.545-3.499-0.545-6.06v-25.561h9.697c2.627,0,4.737,0.239,6.333,0.721
		c1.598,0.48,3.022,1.504,4.274,3.066c0.766,0.961,1.505,2.515,2.213,4.656c0.706,2.145,1.14,4.178,1.302,6.1h4.547V85.213h-4.547
		c-0.202,1.724-0.614,3.557-1.241,5.499c-0.627,1.944-1.386,3.496-2.273,4.659c-1.091,1.362-2.354,2.334-3.787,2.913
		c-1.435,0.581-3.709,0.873-6.82,0.873h-9.697V65.259h13.518c2.221,0,4.201,0.039,5.939,0.122c1.735,0.079,3.23,0.199,4.483,0.358
		c2.426,0.322,4.98,2.193,7.668,5.621c2.688,3.424,4.436,6.661,5.243,9.706h4.545V60.51h-66.55v4.267
		c1.09,0.082,2.554,0.322,4.394,0.723c1.838,0.399,3.305,0.86,4.396,1.381c1.414,0.642,2.342,1.472,2.788,2.494
		c0.442,1.023,0.666,2.194,0.666,3.517v61.302c0,1.484-0.253,2.705-0.758,3.669c-0.506,0.96-1.403,1.74-2.696,2.342
		c-0.608,0.282-1.921,0.552-3.941,0.812c-2.021,0.262-3.636,0.43-4.848,0.511v4.267h71.4l1.637-25.124h-4.365
		C728.551,122.516,727.246,125.391,725.207,129.298 M816.845,141.048c-1.569-0.282-2.876-0.682-3.923-1.203
		c-1.246-0.642-2.734-1.612-4.465-2.915c-1.73-1.301-3.461-3.034-5.189-5.199c-4.531-5.647-8.81-10.954-12.834-15.921
		c-4.025-4.965-9.111-10.893-15.261-17.781c4.437-4.13,8.915-8.7,13.434-13.713c4.517-5.01,8.855-9.862,13.016-14.549
		c0.969-1.043,2.21-1.912,3.726-2.614c1.514-0.701,2.978-1.213,4.392-1.535c0.888-0.158,1.614-0.299,2.18-0.419
		c0.567-0.12,1.132-0.2,1.697-0.242c0.524-0.038,0.99-0.079,1.392-0.119c0.403-0.039,0.668-0.061,0.788-0.061V60.51h-32.245v4.267
		c0.565,0.042,1.294,0.091,2.183,0.151c0.888,0.06,1.898,0.209,3.031,0.453c0.97,0.237,1.826,0.548,2.574,0.931
		c0.748,0.379,1.121,0.869,1.121,1.471c0,1.682-0.735,3.617-2.211,5.8c-1.476,2.183-3.809,5.099-7.001,8.744
		c-2.869,3.287-6.061,6.581-9.576,9.887s-7.092,6.482-10.728,9.524h-1.212V72.292c0-1.323,0.242-2.546,0.726-3.668
		c0.486-1.121,1.414-1.925,2.787-2.403c0.81-0.281,2.063-0.583,3.759-0.902c1.697-0.32,3.111-0.5,4.243-0.542V60.51h-35.7v4.267
		c1.132,0.082,2.444,0.322,3.94,0.723c1.494,0.399,2.788,0.86,3.878,1.381c1.374,0.642,2.293,1.464,2.758,2.465
		s0.698,2.184,0.698,3.546v61.545c0,1.441-0.274,2.673-0.819,3.695c-0.546,1.021-1.425,1.794-2.637,2.314
		c-0.727,0.32-1.98,0.562-3.757,0.72c-1.779,0.161-3.132,0.281-4.062,0.362v4.267h35.7v-4.267c-1.173-0.041-2.636-0.262-4.394-0.662
		s-2.961-0.742-3.608-1.021c-1.332-0.642-2.252-1.482-2.756-2.525c-0.505-1.042-0.757-2.222-0.757-3.545v-29.69h1.575
		c6.223,6.611,12.173,13.431,17.85,20.464c5.676,7.033,10.838,14.114,15.487,21.246h24.123v-4.267
		C819.721,141.487,818.413,141.327,816.845,141.048"/>
	<path clip-path="url(#SVGID_2_)" d="M301.577,230.401c-3.415,0-6.689-0.675-9.821-2.021c-3.133-1.346-5.909-3.285-8.329-5.816
		c-2.393-2.53-4.303-5.621-5.727-9.271c-1.426-3.648-2.138-7.762-2.138-12.34s0.699-8.732,2.097-12.462s3.334-6.94,5.807-9.633
		c2.447-2.666,5.337-4.727,8.671-6.182c3.334-1.454,6.897-2.181,10.688-2.181c2.822,0,5.376,0.35,7.662,1.05
		c2.285,0.7,4.463,1.682,6.533,2.946l1.654-2.745h3.229l0.363,20.426h-3.31c-0.43-1.991-1.075-4.151-1.936-6.479
		c-0.86-2.328-1.868-4.3-3.023-5.914c-1.291-1.83-2.823-3.263-4.596-4.3c-1.775-1.035-3.803-1.554-6.088-1.554
		c-2.608,0-5.034,0.579-7.278,1.737s-4.187,2.869-5.826,5.131c-1.559,2.182-2.782,4.956-3.669,8.322
		c-0.887,3.366-1.33,7.123-1.33,11.271c0,3.662,0.463,7.022,1.39,10.079c0.928,3.058,2.252,5.744,3.973,8.06
		c1.72,2.29,3.755,4.081,6.108,5.374c2.352,1.292,4.979,1.938,7.883,1.938c2.178,0,4.18-0.343,6.008-1.029
		c1.828-0.686,3.413-1.595,4.758-2.724c1.344-1.185,2.526-2.53,3.548-4.037s1.855-3.148,2.5-4.925l3.028,1.453
		c-2.313,5.678-5.378,9.735-9.196,12.171C311.391,229.182,306.848,230.401,301.577,230.401"/>
	<path clip-path="url(#SVGID_2_)" d="M363.763,219.663c-1.669,3.176-3.902,5.705-6.701,7.589c-2.799,1.884-6.014,2.825-9.648,2.825
		c-3.202,0-6.008-0.564-8.416-1.695c-2.409-1.13-4.394-2.663-5.954-4.602c-1.561-1.937-2.725-4.198-3.492-6.781
		c-0.767-2.584-1.15-5.314-1.15-8.194c0-2.583,0.41-5.119,1.231-7.609c0.82-2.489,2.024-4.729,3.613-6.721
		c1.534-1.91,3.437-3.451,5.712-4.622c2.273-1.17,4.823-1.756,7.649-1.756c2.906,0,5.395,0.458,7.468,1.373
		c2.072,0.915,3.754,2.166,5.046,3.754c1.237,1.507,2.159,3.282,2.765,5.328c0.605,2.046,0.908,4.266,0.908,6.66v2.664h-26.359
		c0,2.616,0.248,4.99,0.746,7.121s1.285,4.005,2.362,5.623c1.049,1.565,2.422,2.799,4.117,3.702
		c1.696,0.904,3.714,1.355,6.055,1.355c2.395,0,4.461-0.562,6.196-1.685c1.736-1.122,3.411-3.144,5.026-6.065L363.763,219.663z
		 M354.842,204.485c0-1.502-0.128-3.112-0.384-4.829c-0.256-1.716-0.666-3.152-1.231-4.306c-0.619-1.234-1.467-2.24-2.543-3.019
		c-1.076-0.778-2.462-1.168-4.158-1.168c-2.825,0-5.174,1.174-7.044,3.522c-1.87,2.347-2.886,5.613-3.047,9.799H354.842z"/>
	<path clip-path="url(#SVGID_2_)" d="M412.324,229.028h-19.457v-2.664c0.619-0.054,1.298-0.107,2.039-0.162
		c0.74-0.053,1.352-0.161,1.836-0.322c0.753-0.242,1.312-0.666,1.676-1.271c0.363-0.606,0.545-1.394,0.545-2.362V201.78
		c0-2.825-0.668-5.005-2.004-6.539c-1.335-1.534-2.96-2.301-4.875-2.301c-1.43,0-2.738,0.222-3.925,0.666s-2.239,0.989-3.156,1.635
		c-0.89,0.62-1.598,1.286-2.124,1.998c-0.526,0.714-0.911,1.286-1.153,1.716v22.889c0,0.915,0.188,1.669,0.565,2.26
		c0.377,0.592,0.942,1.05,1.696,1.373c0.565,0.269,1.176,0.471,1.836,0.604c0.659,0.136,1.338,0.229,2.039,0.283v2.664h-19.497
		v-2.664c0.618-0.054,1.257-0.107,1.917-0.162c0.659-0.053,1.231-0.16,1.716-0.322c0.753-0.241,1.311-0.665,1.675-1.269
		c0.363-0.605,0.545-1.392,0.545-2.359v-24.555c0-0.914-0.196-1.754-0.585-2.52c-0.391-0.766-0.936-1.391-1.635-1.875
		c-0.512-0.322-1.117-0.558-1.817-0.705c-0.7-0.148-1.453-0.248-2.26-0.303v-2.665l13.24-0.888l0.565,0.565v5.61h0.202
		c0.646-0.646,1.453-1.419,2.422-2.32c0.969-0.901,1.883-1.636,2.745-2.2c0.995-0.646,2.18-1.185,3.552-1.615
		c1.372-0.43,2.92-0.646,4.642-0.646c3.821,0,6.654,1.19,8.497,3.572c1.843,2.382,2.766,5.551,2.766,9.508v20.708
		c0,0.941,0.161,1.701,0.484,2.279c0.323,0.579,0.874,1.03,1.655,1.353c0.646,0.27,1.204,0.458,1.675,0.565
		c0.471,0.108,1.124,0.188,1.958,0.242V229.028z"/>
	<path clip-path="url(#SVGID_2_)" d="M441.792,227.292c-1.75,0.727-3.405,1.339-4.965,1.837c-1.562,0.497-3.472,0.746-5.732,0.746
		c-3.337,0-5.686-0.842-7.044-2.522c-1.359-1.682-2.039-4.057-2.039-7.125v-26.965h-7.185v-3.875h7.347v-12.394h7.347v12.394h11.424
		v3.875h-11.344v22.242c0,1.669,0.062,3.061,0.183,4.178s0.41,2.093,0.868,2.926c0.43,0.782,1.075,1.373,1.937,1.777
		c0.861,0.403,2.019,0.604,3.472,0.604c0.673,0,1.661-0.06,2.968-0.181c1.305-0.122,2.226-0.276,2.765-0.465V227.292z"/>
	<path clip-path="url(#SVGID_2_)" d="M481.109,219.663c-1.669,3.176-3.902,5.705-6.701,7.589s-6.015,2.825-9.648,2.825
		c-3.202,0-6.008-0.564-8.416-1.695c-2.409-1.13-4.394-2.663-5.954-4.602c-1.561-1.937-2.725-4.198-3.491-6.781
		c-0.768-2.584-1.15-5.314-1.15-8.194c0-2.583,0.41-5.119,1.23-7.609c0.82-2.489,2.024-4.729,3.613-6.721
		c1.534-1.91,3.438-3.451,5.712-4.622c2.273-1.17,4.823-1.756,7.649-1.756c2.906,0,5.395,0.458,7.468,1.373
		c2.072,0.915,3.754,2.166,5.046,3.754c1.237,1.507,2.159,3.282,2.766,5.328c0.604,2.046,0.907,4.266,0.907,6.66v2.664h-26.358
		c0,2.616,0.248,4.99,0.746,7.121s1.284,4.005,2.361,5.623c1.049,1.565,2.422,2.799,4.117,3.702
		c1.696,0.904,3.714,1.355,6.055,1.355c2.396,0,4.461-0.562,6.196-1.685c1.736-1.122,3.411-3.144,5.026-6.065L481.109,219.663z
		 M472.188,204.485c0-1.502-0.128-3.112-0.384-4.829c-0.256-1.716-0.666-3.152-1.23-4.306c-0.619-1.234-1.467-2.24-2.543-3.019
		s-2.462-1.168-4.158-1.168c-2.825,0-5.174,1.174-7.044,3.522c-1.87,2.347-2.886,5.613-3.047,9.799H472.188z"/>
	<path clip-path="url(#SVGID_2_)" d="M516.188,194.353c0,1.373-0.337,2.59-1.009,3.653c-0.673,1.062-1.71,1.595-3.109,1.595
		c-1.507,0-2.657-0.39-3.451-1.171c-0.794-0.78-1.19-1.642-1.19-2.583c0-0.592,0.047-1.131,0.142-1.615s0.182-0.969,0.263-1.453
		c-1.266,0-2.745,0.511-4.44,1.533c-1.696,1.023-3.136,2.477-4.32,4.36v23.171c0,0.941,0.183,1.709,0.545,2.301
		c0.363,0.592,0.936,1.036,1.717,1.332c0.672,0.269,1.54,0.471,2.604,0.604c1.062,0.136,1.984,0.229,2.765,0.283v2.664h-20.99
		v-2.664c0.619-0.054,1.258-0.107,1.917-0.162c0.659-0.054,1.231-0.16,1.716-0.321c0.753-0.242,1.312-0.665,1.676-1.271
		c0.363-0.604,0.544-1.391,0.544-2.358v-24.555c0-0.833-0.195-1.652-0.585-2.459c-0.391-0.806-0.936-1.451-1.635-1.936
		c-0.511-0.322-1.117-0.558-1.817-0.705c-0.699-0.148-1.453-0.248-2.26-0.303v-2.664l13.24-0.889l0.564,0.565v5.611h0.202
		c1.668-2.181,3.525-3.835,5.571-4.966c2.045-1.13,3.915-1.695,5.611-1.695c1.694,0,3.073,0.553,4.137,1.655
		C515.655,191.017,516.188,192.496,516.188,194.353"/>
	<path clip-path="url(#SVGID_2_)" d="M585.013,186.078h-3.027c-0.565-2.125-1.743-4.4-3.533-6.822s-3.505-3.754-5.146-3.996
		c-0.835-0.106-1.824-0.188-2.968-0.242c-1.144-0.054-2.441-0.08-3.895-0.08h-9.608v23.009h6.597c1.996,0,3.547-0.208,4.652-0.626
		c1.107-0.417,2.052-1.056,2.834-1.917c0.539-0.592,1.031-1.515,1.477-2.766c0.444-1.252,0.735-2.59,0.87-4.017h3.027v22.525h-3.027
		c-0.08-1.185-0.357-2.529-0.829-4.037c-0.473-1.507-0.979-2.597-1.518-3.271c-0.81-0.995-1.827-1.675-3.056-2.038
		c-1.227-0.362-2.705-0.545-4.431-0.545h-6.597v19.707c0,0.888,0.176,1.681,0.525,2.379c0.349,0.698,0.969,1.263,1.857,1.692
		c0.402,0.188,1.277,0.416,2.623,0.685c1.346,0.27,2.367,0.417,3.067,0.443v2.866h-24.825v-2.866
		c0.808-0.053,1.885-0.141,3.229-0.262c1.346-0.121,2.22-0.276,2.624-0.465c0.807-0.35,1.393-0.867,1.756-1.555
		c0.363-0.686,0.545-1.513,0.545-2.481v-41.336c0-0.888-0.148-1.676-0.444-2.361s-0.915-1.245-1.856-1.675
		c-0.727-0.35-1.702-0.659-2.926-0.928c-1.226-0.27-2.2-0.432-2.928-0.485v-2.866h44.929V186.078z"/>
	<path clip-path="url(#SVGID_2_)" d="M627.882,208.723c0,2.799-0.444,5.551-1.334,8.255c-0.888,2.705-2.154,4.999-3.798,6.883
		c-1.86,2.153-4.014,3.755-6.465,4.804c-2.451,1.05-5.199,1.574-8.244,1.574c-2.533,0-4.944-0.478-7.233-1.434
		c-2.29-0.954-4.323-2.347-6.102-4.177c-1.751-1.803-3.146-4.003-4.182-6.601c-1.037-2.597-1.557-5.51-1.557-8.739
		c0-6.217,1.812-11.303,5.436-15.259c3.623-3.955,8.372-5.934,14.243-5.934c5.577,0,10.178,1.877,13.801,5.631
		S627.882,202.48,627.882,208.723 M619.525,208.804c0-2.019-0.201-4.151-0.605-6.398c-0.405-2.246-1.012-4.15-1.821-5.712
		c-0.862-1.668-1.996-3.007-3.396-4.016c-1.403-1.01-3.116-1.514-5.137-1.514c-2.076,0-3.85,0.511-5.317,1.533
		c-1.47,1.023-2.662,2.423-3.579,4.198c-0.863,1.642-1.47,3.513-1.82,5.611s-0.525,4.131-0.525,6.095
		c0,2.584,0.209,4.973,0.627,7.165c0.418,2.194,1.085,4.152,2.002,5.873c0.917,1.723,2.068,3.075,3.458,4.058
		c1.387,0.982,3.105,1.474,5.155,1.474c3.371,0,6.039-1.628,8.008-4.885C618.541,219.031,619.525,214.537,619.525,208.804"/>
	<path clip-path="url(#SVGID_2_)" d="M664.091,194.353c0,1.373-0.338,2.59-1.01,3.653c-0.673,1.062-1.709,1.595-3.107,1.595
		c-1.507,0-2.658-0.39-3.451-1.171c-0.794-0.78-1.191-1.642-1.191-2.583c0-0.592,0.046-1.131,0.142-1.615
		c0.095-0.484,0.181-0.969,0.263-1.453c-1.266,0-2.746,0.511-4.441,1.533c-1.694,1.023-3.136,2.477-4.318,4.36v23.171
		c0,0.941,0.181,1.709,0.545,2.301c0.363,0.592,0.934,1.036,1.716,1.332c0.671,0.269,1.54,0.471,2.604,0.604
		c1.062,0.136,1.983,0.229,2.766,0.283v2.664h-20.992v-2.664c0.62-0.054,1.258-0.107,1.918-0.162c0.66-0.054,1.231-0.16,1.715-0.321
		c0.753-0.242,1.313-0.665,1.676-1.271c0.363-0.604,0.546-1.391,0.546-2.358v-24.555c0-0.833-0.195-1.652-0.587-2.459
		c-0.39-0.806-0.935-1.451-1.635-1.936c-0.51-0.322-1.115-0.558-1.815-0.705c-0.7-0.148-1.453-0.248-2.262-0.303v-2.664l13.24-0.889
		l0.566,0.565v5.611h0.202c1.668-2.181,3.524-3.835,5.569-4.966c2.045-1.13,3.916-1.695,5.612-1.695
		c1.695,0,3.074,0.553,4.137,1.655C663.56,191.017,664.091,192.496,664.091,194.353"/>
	<path clip-path="url(#SVGID_2_)" d="M320.208,265.328c0,2.988-0.584,5.631-1.755,7.933c-1.171,2.301-2.792,4.205-4.865,5.711
		c-2.045,1.509-4.292,2.611-6.741,3.311c-2.449,0.7-5.046,1.05-7.79,1.05h-6.419v17.357c0,0.942,0.155,1.771,0.465,2.482
		c0.309,0.714,0.948,1.258,1.917,1.634c0.484,0.19,1.338,0.364,2.563,0.526c1.224,0.161,2.348,0.256,3.371,0.282v2.866h-24.583
		v-2.866c0.645-0.054,1.58-0.147,2.805-0.282c1.224-0.135,2.079-0.31,2.563-0.526c0.807-0.348,1.393-0.859,1.756-1.532
		s0.545-1.534,0.545-2.584v-41.335c0-0.942-0.135-1.789-0.404-2.543c-0.269-0.753-0.902-1.318-1.897-1.695
		c-1.023-0.35-2.038-0.599-3.048-0.747c-1.008-0.147-1.877-0.249-2.603-0.303V251.2h26.158c5.328,0,9.653,1.286,12.977,3.854
		C318.546,257.625,320.208,261.049,320.208,265.328 M307.937,275.096c0.915-1.292,1.52-2.63,1.816-4.016
		c0.296-1.386,0.445-2.63,0.445-3.734c0-1.533-0.182-3.095-0.545-4.683c-0.363-1.588-0.989-2.973-1.877-4.157
		c-0.943-1.265-2.18-2.247-3.714-2.946c-1.534-0.7-3.445-1.051-5.732-1.051h-5.692v25.311h4.117c2.907,0,5.268-0.451,7.085-1.353
		C305.656,277.566,307.021,276.443,307.937,275.096"/>
	<path clip-path="url(#SVGID_2_)" d="M344.388,308.48h-19.416v-2.664c0.619-0.054,1.278-0.114,1.978-0.182
		c0.699-0.067,1.277-0.169,1.735-0.304c0.754-0.242,1.319-0.666,1.696-1.272c0.377-0.605,0.565-1.393,0.565-2.363v-46.131
		c0-0.97-0.209-1.878-0.626-2.727s-0.962-1.516-1.635-1.999c-0.484-0.323-1.372-0.62-2.664-0.89
		c-1.291-0.269-2.328-0.431-3.108-0.484v-2.584l14.976-0.888l0.565,0.605v54.616c0,0.942,0.175,1.715,0.525,2.32
		c0.349,0.605,0.914,1.07,1.695,1.393c0.592,0.27,1.177,0.472,1.756,0.606c0.579,0.134,1.231,0.229,1.958,0.282V308.48z"/>
	<path clip-path="url(#SVGID_2_)" d="M387.096,307.753c-1.265,0.457-2.376,0.827-3.331,1.11c-0.955,0.282-2.038,0.424-3.249,0.424
		c-2.099,0-3.774-0.491-5.026-1.474c-1.251-0.982-2.052-2.415-2.401-4.299h-0.243c-1.749,1.938-3.626,3.418-5.631,4.44
		s-4.42,1.533-7.246,1.533c-2.987,0-5.443-0.915-7.366-2.744c-1.925-1.83-2.887-4.225-2.887-7.186c0-1.534,0.215-2.906,0.646-4.117
		c0.43-1.211,1.076-2.301,1.938-3.271c0.672-0.807,1.56-1.526,2.664-2.159c1.103-0.632,2.139-1.137,3.108-1.514
		c1.211-0.457,3.666-1.305,7.367-2.543c3.7-1.237,6.196-2.206,7.488-2.906v-3.996c0-0.351-0.074-1.023-0.222-2.02
		c-0.148-0.995-0.464-1.937-0.948-2.825c-0.539-0.995-1.299-1.862-2.281-2.604c-0.983-0.74-2.376-1.11-4.178-1.11
		c-1.238,0-2.389,0.209-3.452,0.626s-1.81,0.854-2.24,1.312c0,0.538,0.128,1.332,0.383,2.382c0.256,1.049,0.384,2.018,0.384,2.906
		c0,0.941-0.424,1.803-1.271,2.583c-0.848,0.78-2.026,1.171-3.532,1.171c-1.347,0-2.335-0.479-2.967-1.434
		c-0.633-0.954-0.949-2.024-0.949-3.209c0-1.237,0.437-2.422,1.312-3.553c0.874-1.13,2.011-2.139,3.411-3.026
		c1.211-0.754,2.677-1.394,4.4-1.918c1.722-0.524,3.404-0.787,5.045-0.787c2.261,0,4.232,0.155,5.915,0.465
		c1.681,0.309,3.208,0.975,4.581,1.998c1.373,0.995,2.415,2.348,3.128,4.056c0.713,1.71,1.07,3.91,1.07,6.601
		c0,3.849-0.04,7.26-0.121,10.232c-0.081,2.975-0.121,6.224-0.121,9.749c0,1.05,0.181,1.884,0.545,2.503
		c0.363,0.619,0.921,1.144,1.675,1.574c0.404,0.242,1.043,0.377,1.917,0.403c0.875,0.027,1.77,0.039,2.685,0.039V307.753z
		 M373.008,286.44c-2.288,0.674-4.293,1.335-6.015,1.982c-1.722,0.646-3.324,1.456-4.803,2.427
		c-1.347,0.917-2.409,2.003-3.189,3.257c-0.781,1.254-1.171,2.745-1.171,4.471c0,2.238,0.585,3.883,1.756,4.936
		c1.171,1.052,2.657,1.577,4.461,1.577c1.91,0,3.592-0.465,5.045-1.396c1.454-0.931,2.678-2.029,3.674-3.297L373.008,286.44z"/>
	<path clip-path="url(#SVGID_2_)" d="M417.33,288.983c1.104,0.969,1.951,2.086,2.543,3.351s0.888,2.812,0.888,4.642
		c0,3.688-1.379,6.701-4.138,9.043c-2.758,2.341-6.331,3.512-10.717,3.512c-2.315,0-4.447-0.418-6.398-1.252
		c-1.951-0.834-3.344-1.601-4.178-2.301l-0.807,2.624h-3.027l-0.404-13.846h2.785c0.215,1.054,0.672,2.282,1.372,3.687
		c0.7,1.404,1.548,2.673,2.543,3.807c1.05,1.188,2.308,2.188,3.775,2.998c1.466,0.811,3.115,1.216,4.945,1.216
		c2.583,0,4.574-0.589,5.974-1.767c1.398-1.178,2.099-2.863,2.099-5.056c0-1.131-0.222-2.105-0.666-2.927s-1.097-1.54-1.958-2.16
		c-0.888-0.618-1.978-1.177-3.27-1.674c-1.291-0.499-2.731-0.99-4.319-1.475c-1.265-0.376-2.671-0.895-4.218-1.554
		c-1.548-0.659-2.873-1.434-3.976-2.321c-1.184-0.941-2.153-2.1-2.907-3.472c-0.753-1.372-1.13-2.987-1.13-4.844
		c0-3.256,1.211-6.015,3.633-8.275c2.422-2.26,5.665-3.391,9.728-3.391c1.561,0,3.156,0.201,4.784,0.605s2.953,0.888,3.976,1.453
		l0.929-2.099h2.906l0.606,12.796h-2.786c-0.564-2.864-1.783-5.195-3.653-6.992s-4.15-2.696-6.842-2.696
		c-2.207,0-3.943,0.557-5.207,1.667c-1.266,1.112-1.898,2.453-1.898,4.025c0,1.211,0.208,2.22,0.626,3.027
		c0.417,0.808,1.043,1.493,1.877,2.059c0.807,0.538,1.823,1.043,3.048,1.514c1.224,0.472,2.738,1.003,4.541,1.596
		c1.776,0.563,3.451,1.224,5.024,1.977C415.009,287.234,416.307,288.068,417.33,288.983"/>
	<path clip-path="url(#SVGID_2_)" d="M451.359,306.745c-1.75,0.727-3.405,1.339-4.965,1.836c-1.562,0.498-3.472,0.747-5.732,0.747
		c-3.337,0-5.686-0.842-7.044-2.522c-1.359-1.682-2.039-4.058-2.039-7.125v-26.965h-7.185v-3.876h7.347v-12.392h7.347v12.392h11.424
		v3.876h-11.344v22.242c0,1.669,0.062,3.062,0.183,4.178c0.121,1.117,0.41,2.093,0.868,2.927c0.43,0.78,1.075,1.372,1.937,1.775
		c0.861,0.404,2.019,0.605,3.472,0.605c0.673,0,1.661-0.061,2.968-0.182c1.305-0.12,2.226-0.275,2.765-0.464V306.745z"/>
	<path clip-path="url(#SVGID_2_)" d="M474.61,308.48h-19.214v-2.664c0.618-0.053,1.257-0.107,1.917-0.161
		c0.659-0.054,1.231-0.161,1.715-0.323c0.753-0.241,1.312-0.664,1.676-1.27c0.363-0.604,0.546-1.391,0.546-2.358V277.15
		c0-0.861-0.196-1.647-0.587-2.36c-0.39-0.712-0.935-1.309-1.635-1.793c-0.511-0.322-1.251-0.598-2.22-0.826
		s-1.857-0.37-2.664-0.424v-2.665l14.047-0.887l0.566,0.564v32.455c0,0.942,0.18,1.722,0.541,2.341
		c0.36,0.619,0.928,1.077,1.703,1.372c0.588,0.242,1.162,0.438,1.724,0.586c0.562,0.148,1.189,0.25,1.885,0.303V308.48z
		 M469.564,252.492c0,1.534-0.504,2.873-1.514,4.016c-1.01,1.146-2.254,1.717-3.734,1.717c-1.372,0-2.562-0.545-3.572-1.636
		c-1.009-1.09-1.514-2.334-1.514-3.733c0-1.48,0.505-2.771,1.514-3.875c1.01-1.104,2.2-1.655,3.572-1.655
		c1.534,0,2.792,0.519,3.775,1.554C469.073,249.915,469.564,251.119,469.564,252.492"/>
	<path clip-path="url(#SVGID_2_)" d="M497.942,309.53c-5.759,0-10.267-1.911-13.523-5.732c-3.256-3.821-4.884-8.947-4.884-15.38
		c0-2.798,0.438-5.415,1.312-7.851c0.874-2.436,2.146-4.649,3.813-6.641c1.588-1.91,3.579-3.451,5.976-4.622
		c2.394-1.17,5.005-1.755,7.831-1.755c3.901,0,7.076,0.935,9.525,2.805c2.449,1.871,3.674,4.42,3.674,7.649
		c0,1.346-0.322,2.536-0.969,3.572c-0.646,1.036-1.709,1.554-3.188,1.554c-1.588,0-2.819-0.402-3.693-1.207
		c-0.875-0.805-1.312-1.702-1.312-2.695c0-1.207,0.161-2.448,0.484-3.723c0.323-1.273,0.511-2.205,0.565-2.797
		c-0.483-0.831-1.201-1.387-2.154-1.669c-0.954-0.28-1.98-0.423-3.081-0.423c-1.288,0-2.516,0.277-3.684,0.828
		c-1.168,0.552-2.302,1.568-3.401,3.047c-0.994,1.347-1.799,3.163-2.416,5.45c-0.618,2.288-0.926,5.02-0.926,8.194
		c0,5.006,1.107,9.09,3.325,12.251c2.216,3.164,5.125,4.743,8.726,4.743c2.605,0,4.789-0.636,6.549-1.907s3.393-3.179,4.897-5.722
		l2.579,1.695c-1.775,3.176-4.117,5.691-7.023,7.549C504.037,308.601,501.036,309.53,497.942,309.53"/>
	<path clip-path="url(#SVGID_2_)" d="M573.711,282.202c1.211,1.346,2.104,2.819,2.685,4.42c0.578,1.601,0.867,3.465,0.867,5.591
		c0,5.06-1.87,9.23-5.611,12.514c-3.74,3.283-8.383,4.925-13.926,4.925c-2.558,0-5.114-0.397-7.67-1.191
		c-2.558-0.793-4.763-1.756-6.62-2.886l-1.736,2.946h-3.229l-0.565-19.618h3.27c0.673,2.422,1.46,4.609,2.361,6.56
		c0.902,1.952,2.093,3.774,3.572,5.469c1.399,1.59,3.034,2.854,4.905,3.796c1.87,0.942,4.043,1.412,6.519,1.412
		c1.857,0,3.479-0.241,4.865-0.727c1.385-0.485,2.508-1.173,3.37-2.062c0.861-0.89,1.5-1.934,1.918-3.133
		c0.416-1.199,0.625-2.581,0.625-4.144c0-2.29-0.646-4.426-1.938-6.406c-1.292-1.98-3.217-3.483-5.772-4.508
		c-1.749-0.696-3.754-1.467-6.015-2.311s-4.212-1.642-5.854-2.393c-3.229-1.452-5.739-3.355-7.528-5.71
		c-1.79-2.354-2.684-5.428-2.684-9.221c0-2.18,0.443-4.21,1.332-6.095c0.888-1.883,2.152-3.563,3.794-5.044
		c1.561-1.398,3.404-2.495,5.53-3.289c2.126-0.793,4.346-1.189,6.661-1.189c2.637,0,4.998,0.403,7.084,1.21
		c2.085,0.808,3.989,1.75,5.712,2.826l1.654-2.745h3.229l0.323,19.013h-3.271c-0.591-2.18-1.257-4.265-1.998-6.257
		c-0.74-1.991-1.702-3.795-2.886-5.409c-1.157-1.561-2.57-2.805-4.238-3.733c-1.669-0.929-3.714-1.394-6.136-1.394
		c-2.557,0-4.737,0.822-6.539,2.463c-1.804,1.642-2.705,3.647-2.705,6.015c0,2.476,0.579,4.527,1.736,6.155
		c1.156,1.628,2.839,2.968,5.046,4.018c1.964,0.941,3.895,1.756,5.792,2.441c1.897,0.687,3.734,1.419,5.51,2.2
		c1.615,0.7,3.169,1.493,4.662,2.382C571.309,279.981,572.606,281.018,573.711,282.202"/>
	<path clip-path="url(#SVGID_2_)" d="M626.066,307.753l-12.996,0.888l-0.608-0.564v-5.046h-0.242
		c-0.644,0.673-1.37,1.393-2.175,2.16c-0.807,0.767-1.734,1.459-2.782,2.078c-1.209,0.727-2.378,1.277-3.506,1.655
		c-1.128,0.376-2.727,0.564-4.795,0.564c-3.52,0-6.2-1.148-8.041-3.447c-1.84-2.298-2.76-5.638-2.76-10.021v-19.032
		c0-0.968-0.183-1.78-0.548-2.439c-0.366-0.659-0.901-1.229-1.605-1.714c-0.487-0.323-1.097-0.558-1.828-0.706
		c-0.731-0.146-1.503-0.248-2.315-0.302v-2.664l13.28-0.969l0.606,0.564v27.651c0,2.88,0.645,5.046,1.937,6.499
		s2.84,2.18,4.643,2.18c1.479,0,2.799-0.229,3.957-0.686c1.156-0.456,2.125-0.994,2.906-1.613c0.727-0.563,1.364-1.161,1.917-1.794
		c0.551-0.631,0.975-1.216,1.271-1.754v-22.537c0-0.887-0.188-1.673-0.564-2.359c-0.377-0.684-0.901-1.269-1.574-1.753
		c-0.485-0.323-1.205-0.518-2.16-0.585c-0.955-0.066-2.025-0.127-3.209-0.181v-2.664l14.49-0.969l0.606,0.563v31.572
		c0,0.915,0.188,1.694,0.566,2.34c0.376,0.646,0.9,1.195,1.574,1.652c0.483,0.297,1.062,0.491,1.734,0.585
		c0.673,0.095,1.413,0.155,2.222,0.182V307.753z"/>
	<path clip-path="url(#SVGID_2_)" d="M661.426,273.805c0,1.373-0.337,2.59-1.009,3.653c-0.673,1.062-1.709,1.595-3.107,1.595
		c-1.507,0-2.658-0.39-3.451-1.171c-0.794-0.78-1.191-1.642-1.191-2.583c0-0.592,0.046-1.131,0.142-1.615
		c0.095-0.484,0.181-0.969,0.263-1.453c-1.266,0-2.746,0.511-4.441,1.533c-1.694,1.023-3.136,2.477-4.318,4.36v23.17
		c0,0.942,0.181,1.71,0.545,2.301c0.362,0.593,0.934,1.037,1.716,1.332c0.671,0.27,1.54,0.472,2.603,0.606
		c1.063,0.135,1.984,0.229,2.767,0.282v2.664h-20.992v-2.664c0.62-0.054,1.258-0.107,1.918-0.161s1.231-0.162,1.715-0.323
		c0.753-0.241,1.313-0.664,1.676-1.27c0.363-0.604,0.545-1.391,0.545-2.358v-24.555c0-0.833-0.194-1.652-0.586-2.459
		c-0.39-0.806-0.935-1.451-1.635-1.936c-0.51-0.322-1.116-0.558-1.815-0.705c-0.7-0.148-1.453-0.248-2.262-0.303v-2.664l13.24-0.889
		l0.566,0.565v5.611h0.202c1.668-2.181,3.524-3.836,5.569-4.966s3.916-1.695,5.612-1.695c1.695,0,3.074,0.553,4.137,1.655
		C660.896,270.469,661.426,271.948,661.426,273.805"/>
	<path clip-path="url(#SVGID_2_)" d="M698.928,304.363c1.076,1.022,1.923,2.18,2.543,3.472c0.619,1.291,0.928,2.893,0.928,4.804
		c0,1.91-0.417,3.706-1.251,5.389c-0.834,1.682-2.098,3.142-3.795,4.38c-1.803,1.265-3.955,2.246-6.458,2.946
		c-2.503,0.699-5.597,1.05-9.283,1.05c-6.029,0-10.536-0.882-13.523-2.645c-2.988-1.763-4.481-4.339-4.481-7.729
		c0-2.745,1.076-4.912,3.23-6.499c2.152-1.588,4.896-2.449,8.234-2.584v-0.564c-0.808-0.242-1.643-0.545-2.503-0.908
		c-0.861-0.364-1.602-0.788-2.221-1.272c-0.7-0.564-1.265-1.23-1.695-1.998c-0.431-0.767-0.645-1.715-0.645-2.846
		c0-1.426,0.503-2.738,1.513-3.936s2.536-2.227,4.581-3.088v-0.605c-2.583-1.211-4.588-2.766-6.014-4.662
		c-1.427-1.897-2.139-4.098-2.139-6.601c0-3.768,1.404-6.862,4.218-9.284c2.811-2.422,6.411-3.633,10.798-3.633
		c1.21,0,2.415,0.121,3.613,0.363c1.196,0.242,2.415,0.552,3.652,0.929h13.887v3.875h-9.365v0.242
		c0.995,1.157,1.736,2.436,2.22,3.835c0.485,1.399,0.728,2.771,0.728,4.117c0,3.499-1.42,6.459-4.26,8.88
		c-2.84,2.423-6.142,3.634-9.909,3.634h-4.886c-0.619,0.216-1.264,0.605-1.937,1.171c-0.673,0.564-1.009,1.332-1.009,2.301
		c0,0.996,0.281,1.756,0.848,2.28c0.564,0.525,1.251,0.882,2.058,1.07c0.78,0.215,1.689,0.35,2.726,0.403s2.104,0.095,3.209,0.121
		c1.184,0.027,2.805,0.107,4.863,0.242c2.06,0.135,3.52,0.216,4.381,0.242c1.236,0.055,2.481,0.35,3.733,0.888
		C696.768,302.681,697.905,303.421,698.928,304.363 M695.779,314.131c0-1.509-0.351-2.745-1.05-3.714s-1.764-1.629-3.188-1.978
		c-0.754-0.107-2.301-0.229-4.643-0.363s-5.06-0.202-8.153-0.202c-2.906,0.565-4.973,1.514-6.196,2.846
		c-1.225,1.332-1.837,3.048-1.837,5.146c0,0.942,0.202,1.844,0.604,2.705c0.404,0.86,1.104,1.655,2.101,2.382
		c0.94,0.699,2.206,1.271,3.794,1.715c1.588,0.444,3.525,0.666,5.812,0.666c3.956,0,7.071-0.76,9.347-2.28
		C694.642,319.534,695.779,317.226,695.779,314.131 M688.029,280.748c0-3.147-0.641-5.657-1.918-7.527
		c-1.278-1.87-3.074-2.807-5.39-2.807c-1.264,0-2.347,0.264-3.249,0.788c-0.901,0.524-1.634,1.271-2.2,2.24
		c-0.539,0.888-0.922,1.957-1.149,3.209c-0.229,1.251-0.343,2.536-0.343,3.855c0,2.986,0.65,5.423,1.956,7.306
		c1.307,1.884,2.994,2.826,5.066,2.826c2.315,0,4.098-0.935,5.35-2.806C687.402,285.962,688.029,283.601,688.029,280.748"/>
	<path clip-path="url(#SVGID_2_)" d="M742.282,299.115c-1.669,3.177-3.902,5.706-6.701,7.589c-2.799,1.884-6.016,2.826-9.648,2.826
		c-3.203,0-6.008-0.565-8.416-1.695c-2.409-1.131-4.393-2.665-5.954-4.603c-1.561-1.938-2.724-4.197-3.491-6.781
		c-0.768-2.583-1.15-5.314-1.15-8.194c0-2.583,0.41-5.12,1.231-7.609c0.819-2.489,2.023-4.729,3.611-6.721
		c1.535-1.91,3.438-3.451,5.712-4.622c2.275-1.17,4.824-1.756,7.65-1.756c2.907,0,5.395,0.458,7.467,1.373
		c2.073,0.915,3.755,2.166,5.046,3.754c1.239,1.507,2.16,3.283,2.767,5.328c0.604,2.046,0.907,4.266,0.907,6.66v2.664h-26.358
		c0,2.616,0.248,4.99,0.747,7.121c0.497,2.131,1.283,4.005,2.36,5.624c1.05,1.563,2.423,2.798,4.117,3.701
		c1.696,0.904,3.714,1.355,6.056,1.355c2.396,0,4.461-0.562,6.195-1.684c1.737-1.123,3.411-3.146,5.026-6.066L742.282,299.115z
		 M733.361,283.937c0-1.503-0.129-3.112-0.385-4.829c-0.256-1.716-0.666-3.152-1.23-4.306c-0.619-1.234-1.467-2.24-2.543-3.019
		s-2.462-1.168-4.157-1.168c-2.827,0-5.174,1.174-7.044,3.522c-1.871,2.347-2.887,5.613-3.048,9.799H733.361z"/>
	<path clip-path="url(#SVGID_2_)" d="M777.36,273.805c0,1.373-0.338,2.59-1.01,3.653c-0.673,1.062-1.709,1.595-3.107,1.595
		c-1.507,0-2.658-0.39-3.451-1.171c-0.794-0.78-1.191-1.642-1.191-2.583c0-0.592,0.046-1.131,0.142-1.615
		c0.095-0.484,0.181-0.969,0.263-1.453c-1.266,0-2.746,0.511-4.441,1.533c-1.694,1.023-3.136,2.477-4.318,4.36v23.17
		c0,0.942,0.181,1.71,0.545,2.301c0.363,0.593,0.934,1.037,1.716,1.332c0.671,0.27,1.54,0.472,2.604,0.606
		c1.062,0.135,1.983,0.229,2.766,0.282v2.664h-20.992v-2.664c0.62-0.054,1.258-0.107,1.918-0.161s1.231-0.162,1.715-0.323
		c0.753-0.241,1.313-0.664,1.676-1.27c0.363-0.604,0.546-1.391,0.546-2.358v-24.555c0-0.833-0.195-1.652-0.587-2.459
		c-0.39-0.806-0.935-1.451-1.635-1.936c-0.51-0.322-1.115-0.558-1.815-0.705c-0.7-0.148-1.453-0.248-2.262-0.303v-2.664l13.24-0.889
		l0.566,0.565v5.611h0.202c1.668-2.181,3.524-3.836,5.569-4.966s3.916-1.695,5.612-1.695c1.695,0,3.074,0.553,4.137,1.655
		C776.829,270.469,777.36,271.948,777.36,273.805"/>
	<path clip-path="url(#SVGID_2_)" d="M777.724,321.478c0-1.346,0.368-2.442,1.108-3.29c0.741-0.848,1.662-1.271,2.767-1.271
		c0.859,0,1.6,0.16,2.219,0.48s1.171,0.734,1.655,1.241c0.402,0.4,0.832,0.948,1.291,1.643c0.456,0.694,0.819,1.268,1.09,1.722
		c1.345-0.725,2.953-2.618,4.822-5.679c1.869-3.062,3.223-5.746,4.057-8.056c-2.557-6.375-4.87-12.079-6.942-17.109
		c-2.071-5.031-4.237-10.237-6.497-15.617c-0.511-1.238-1.372-2.2-2.583-2.887s-2.422-1.124-3.633-1.312v-2.664h18.172v2.825
		c-0.806,0.026-1.775,0.195-2.906,0.505c-1.131,0.309-1.695,0.665-1.695,1.067c0,0.162,0.06,0.431,0.181,0.808
		c0.122,0.376,0.264,0.766,0.425,1.169c1.021,2.663,2.576,6.501,4.669,11.516c2.095,5.016,3.719,9.028,4.871,12.04
		c1.213-2.877,2.474-5.854,3.78-8.934c1.306-3.08,2.768-6.717,4.384-10.91c0.189-0.512,0.458-1.217,0.81-2.118
		c0.35-0.9,0.524-1.674,0.524-2.32c0-0.698-0.611-1.351-1.837-1.955c-1.224-0.604-2.388-0.975-3.491-1.109v-2.583h14.781v2.502
		c-0.807,0.135-1.87,0.599-3.188,1.393c-1.319,0.794-2.302,1.917-2.947,3.37c-3.203,7.428-6.049,14.196-8.537,20.306
		c-2.491,6.108-4.38,10.603-5.672,13.481c-1.696,3.769-3.209,6.708-4.541,8.82s-2.631,3.774-3.896,4.985
		c-1.237,1.13-2.36,1.891-3.371,2.281c-1.009,0.39-2.052,0.585-3.128,0.585c-2.098,0-3.748-0.498-4.944-1.493
		C778.322,323.914,777.724,322.77,777.724,321.478"/>
</g>
</svg>
